{
  "accessors": [
    {
      "bufferView": 2,
      "componentType": 5126,
      "count": 12275,
      "max": [
        1.3076627254486084,
        3.2700281143188477,
        0.7809338569641113
      ],
      "min": [
        -1.3076627254486084,
        -5.2378606341108025e-08,
        -0.780934751033783
      ],
      "type": "VEC3"
    },
    {
      "bufferView": 2,
      "byteOffset": 147300,
      "componentType": 5126,
      "count": 12275,
      "max": [
        1.0,
        1.0,
        1.0
      ],
      "min": [
        -1.0,
        -1.0,
        -1.0
      ],
      "type": "VEC3"
    },
    {
      "bufferView": 1,
      "componentType": 5126,
      "count": 12275,
      "max": [
        1.0000001192092896,
        1.0000004768371582
      ],
      "min": [
        0.0,
        -1.221332809109299e-06
      ],
      "type": "VEC2"
    },
    {
      "bufferView": 0,
      "componentType": 5125,
      "count": 70752,
      "type": "SCALAR"
    },
    {
      "bufferView": 2,
      "byteOffset": 294600,
      "componentType": 5126,
      "count": 3886,
      "max": [
        0.8807991743087769,
        0.062291085720062256,
        0.8807992935180664
      ],
      "min": [
        -0.8807991743087769,
        -1.0622749328613281,
        -0.8807990550994873
      ],
      "type": "VEC3"
    },
    {
      "bufferView": 2,
      "byteOffset": 341232,
      "componentType": 5126,
      "count": 3886,
      "max": [
        1.0,
        1.0,
        1.0
      ],
      "min": [
        -1.0,
        -1.0,
        -1.0
      ],
      "type": "VEC3"
    },
    {
      "bufferView": 1,
      "byteOffset": 98200,
      "componentType": 5126,
      "count": 3886,
      "max": [
        0.8750001192092896,
        1.0000087022781372
      ],
      "min": [
        0.125,
        0.0
      ],
      "type": "VEC2"
    },
    {
      "bufferView": 0,
      "byteOffset": 283008,
      "componentType": 5125,
      "count": 22176,
      "type": "SCALAR"
    }
  ],
  "asset": {
    "extras": {
      "author": "NgoHongMinhVN (https://sketchfab.com/ngohongminh1985)",
      "license": "CC-BY-4.0 (http://creativecommons.org/licenses/by/4.0/)",
      "source": "https://sketchfab.com/3d-models/trophy-cup-001-6837514b47324792bcfd9b970f8a7853",
      "title": "Trophy Cup 001"
    },
    "generator": "Sketchfab-13.80.0",
    "version": "2.0"
  },
  "bufferViews": [
    {
      "buffer": 0,
      "byteLength": 371712,
      "name": "floatBufferViews",
      "target": 34963
    },
    {
      "buffer": 0,
      "byteLength": 129288,
      "byteOffset": 371712,
      "byteStride": 8,
      "name": "floatBufferViews",
      "target": 34962
    },
    {
      "buffer": 0,
      "byteLength": 387864,
      "byteOffset": 501000,
      "byteStride": 12,
      "name": "floatBufferViews",
      "target": 34962
    }
  ],
  "buffers": [
    {
      "byteLength": 888864,
      "uri": "scene.bin"
    }
  ],
  "materials": [
    {
      "doubleSided": true,
      "emissiveFactor": [
        0.00755691,
        0.00755691,
        0.00755691
      ],
      "name": "Material.001",
      "pbrMetallicRoughness": {
        "baseColorFactor": [
          0.2746773121,
          0.0975873471,
          0.0069954102,
          1.0
        ],
        "metallicFactor": 0.176,
        "roughnessFactor": 0.0
      }
    },
    {
      "doubleSided": true,
      "emissiveFactor": [
        0.00755691,
        0.00755691,
        0.00755691
      ],
      "name": "Material.002",
      "pbrMetallicRoughness": {
        "baseColorFactor": [
          0.0033940426,
          0.0016958512,
          0.0,
          1.0
        ],
        "metallicFactor": 0.0,
        "roughnessFactor": 0.0
      }
    }
  ],
  "meshes": [
    {
      "name": "BezierCurve.001_Material.001_0",
      "primitives": [
        {
          "attributes": {
            "NORMAL": 1,
            "POSITION": 0,
            "TEXCOORD_0": 2
          },
          "indices": 3,
          "material": 0,
          "mode": 4
        }
      ]
    },
    {
      "name": "BezierCurve.001_Material.002_0",
      "primitives": [
        {
          "attributes": {
            "NORMAL": 5,
            "POSITION": 4,
            "TEXCOORD_0": 6
          },
          "indices": 7,
          "material": 1,
          "mode": 4
        }
      ]
    }
  ],
  "nodes": [
    {
      "children": [
        1
      ],
      "matrix": [
        1.0,
        0.0,
        0.0,
        0.0,
        0.0,
        2.220446049250313e-16,
        -1.0,
        0.0,
        0.0,
        1.0,
        2.220446049250313e-16,
        0.0,
        0.0,
        0.0,
        0.0,
        1.0
      ],
      "name": "Sketchfab_model"
    },
    {
      "children": [
        2
      ],
      "matrix": [
        0.009999999776482582,
        0.0,
        0.0,
        0.0,
        0.0,
        0.0,
        0.009999999776482582,
        0.0,
        0.0,
        -0.009999999776482582,
        0.0,
        0.0,
        0.0,
        0.0,
        0.0,
        1.0
      ],
      "name": "0fa8247045da47aab8d11ce30fd33192.fbx"
    },
    {
      "children": [
        3
      ],
      "name": "RootNode"
    },
    {
      "children": [
        4,
        5
      ],
      "matrix": [
        100.0,
        0.0,
        0.0,
        0.0,
        0.0,
        99.99999999999866,
        1.6292067073209114e-05,
        0.0,
        0.0,
        -1.6292067073209114e-05,
        99.99999999999866,
        0.0,
        0.0,
        0.0,
        0.0,
        1.0
      ],
      "name": "BezierCurve.001"
    },
    {
      "mesh": 0,
      "name": "BezierCurve.001_Material.001_0"
    },
    {
      "mesh": 1,
      "name": "BezierCurve.001_Material.002_0"
    }
  ],
  "scene": 0,
  "scenes": [
    {
      "name": "Sketchfab_Scene",
      "nodes": [
        0
      ]
    }
  ]
}
